<?xml version="1.0" encoding="utf-8"?>
<!-- Generator: Adobe Illustrator 24.0.1, SVG Export Plug-In . SVG Version: 6.00 Build 0)  -->
<svg version="1.1" id="Layer_1" xmlns="http://www.w3.org/2000/svg" xmlns:xlink="http://www.w3.org/1999/xlink" x="0px" y="0px"
	 viewBox="0 0 151 30" style="enable-background:new 0 0 151 30;" xml:space="preserve">
<style type="text/css">
	.st0{fill:#B60033;}
</style>
<g>
	<g>
		<path class="st0" d="M143.3,18.5c0,1.9,1.5,3.4,3.4,3.4c1.8,0,3.4-1.5,3.4-3.4s-1.5-3.4-3.4-3.4C144.8,15.1,143.3,16.7,143.3,18.5
			z M143.8,18.5c0-1.6,1.3-2.9,2.9-2.9c1.6,0,2.9,1.3,2.9,2.9s-1.3,2.9-2.9,2.9C145.1,21.4,143.8,20.1,143.8,18.5z"/>
		<g>
			<path class="st0" d="M148.4,20.3h-0.8l-1.1-1.7l-0.5,0v1.1c0,0.2,0,0.3,0.1,0.4s0.2,0.1,0.5,0.1v0.1H145v-0.1
				c0.2,0,0.4-0.1,0.4-0.2c0.1-0.1,0.1-0.2,0.1-0.5v-2.3c0-0.2,0-0.4-0.1-0.4c-0.1-0.1-0.2-0.1-0.4-0.1v-0.1h1.6
				c0.4,0,0.7,0,0.9,0.2c0.4,0.2,0.5,0.4,0.5,0.8c0,0.5-0.4,0.8-1.1,0.9l1,1.5c0.1,0.1,0.2,0.2,0.5,0.2L148.4,20.3L148.4,20.3z
				 M147.6,17.5c0-0.4-0.2-0.6-0.5-0.7c-0.2-0.1-0.4-0.1-0.7-0.1c-0.2,0-0.3,0-0.3,0c-0.1,0-0.1,0.1-0.1,0.2v1.4c0.5,0,0.8,0,1-0.1
				C147.4,18.1,147.6,17.9,147.6,17.5z"/>
		</g>
	</g>
	<g>
		<path class="st0" d="M3.3,6.6c0-1,0-3.3-0.3-4.1c-0.4-1-1.7-1-2.8-1l0-0.8h16l-0.1,4.7h-0.7C15,1.6,13.3,1.4,9.9,1.4H7.5
			c-0.5,0-0.7,0-0.8,0.1c-0.1,0.1,0,0.5,0,1.1L6.6,10c4.4,0.2,5.1-1.6,5.3-3.8h0.7c-0.1,1.4-0.1,2.8-0.2,4.2
			c0.1,1.3,0.1,2.6,0.1,3.9h-0.7c-0.4-3.3-2.1-3.4-5.2-3.4l-0.1,5.1c0,0.9,0,2.4,0.5,3.1c0.8,1.1,2.8,1.1,4.1,1.1
			c3.4-0.1,5.6-0.5,6-4.2h0.7l-0.4,5H0l0-0.7c1,0,2.4,0,2.8-1.1c0.3-0.8,0.4-3.1,0.4-4.1L3.3,6.6z"/>
		<path class="st0" d="M25.2,17.3c0,2-0.4,3,2.1,3.1v0.6C26.2,21,25,21,23.8,21c-1.2,0-2.5,0.1-3.7,0.1v-0.6c2.4-0.1,2.3-0.9,2.3-3
			l0.1-3.8c0-0.9,0-3.1-0.1-3.8c-0.2-1.1-1.1-1-2.1-1l0-0.6c1.7-0.2,2.9-0.7,4.5-1l0.3,2.5c1.2-1.6,2.8-2.5,4.9-2.5
			c1.9,0,3.8,0.6,4.4,2.5c1.2-1.6,2.9-2.5,5-2.5c1.4,0,2.8,0.4,3.8,1.5c0.9,1,0.8,2.8,0.8,4.1l-0.1,4.4c0,2-0.4,3,2.2,3.1v0.6
			c-1.2,0-2.4-0.1-3.6-0.1c-1.2,0-2.4,0.1-3.6,0.1v-0.6c2.4-0.1,2.2-0.9,2.3-3l0.1-3.9c0-2.2,0.3-5.2-2.9-5.2
			c-1.3,0-2.6,0.9-3.2,2.1c-0.4,0.9-0.5,2.1-0.5,3.2l-0.1,3.7c0,2-0.4,3,2.2,3.1l0,0.6c-1.2,0-2.4-0.1-3.5-0.1
			c-1.2,0-2.4,0.1-3.6,0.1l0-0.6c2.4-0.1,2.2-0.9,2.3-3l0.1-3.9c0-2.2,0.3-5.2-2.9-5.2c-1.3,0-2.6,0.9-3.2,2.1
			c-0.4,0.9-0.5,2.1-0.5,3.2L25.2,17.3z"/>
		<path class="st0" d="M52.6,9.9L52.6,9.9c1.3-1.6,2.8-2.6,4.9-2.6c4.3,0,7.1,3.1,7.1,7.1c-0.1,3.8-3,7-7.1,7
			c-1.9,0-3.2-0.6-4.6-1.8l-0.1,6c0,2.2-0.3,3,2.5,3.2l0,0.6c-1.2,0-2.4-0.1-3.6-0.1c-1.3,0-2.6,0.1-3.9,0.1l0-0.6
			c2.4-0.1,2.2-0.9,2.3-3l0.2-12.2c0-0.9,0-3.1-0.1-3.8c-0.2-1.1-1.1-1-2.2-1l0-0.6c1.6-0.2,3.2-0.6,4.7-1L52.6,9.9z M52.9,15.8
			c0,1,0,2.6,0.7,3.4c0.7,0.8,2,1.2,3.2,1.2c3.5,0,4.6-3.3,4.6-6.1c0-2.8-0.8-6-4.4-6c-1.3,0-2.6,0.6-3.3,1.8
			c-0.7,1.1-0.7,2.2-0.7,3.5L52.9,15.8z"/>
		<path class="st0" d="M67.7,10.6c-0.2-0.5-0.5-1.3-0.9-1.7c-0.3-0.3-1.1-0.6-1.4-0.6l0-0.6c1.1,0,2.2,0.1,3.3,0.1
			c1.2,0,2.4-0.1,3.7-0.1l0,0.6c-0.4,0.2-2,0.1-2,1.1c0,0.8,0.9,2.9,1.3,3.7l2,4.8l2.5-5.6c0.3-0.8,0.9-2.1,0.9-2.9
			c0-0.9-1.1-1.1-1.8-1.1l0-0.6c0.8,0,1.7,0.1,2.5,0.1c0.7,0,1.4-0.1,2.1-0.1l0,0.6c-1.3,0-1.4,0.9-1.9,2l-0.4,0.9l-6.9,14.9
			c-0.4,1-1.4,3.4-2.8,3.4c-0.6,0.1-1-0.3-1-0.8c0-1.4,1.8-1.3,2.5-2.3c0.5-0.7,1.1-2,1.5-2.9l1.3-2.6L67.7,10.6z"/>
		<path class="st0" d="M82.8,13.7c0-0.8,0.1-3.1-0.1-3.8c-0.3-1.1-1.1-1-2.1-1l0-0.6c1.5-0.1,2.9-0.6,4.4-1c0.3,0.9,0.4,2,0.3,3.1
			h0.1c0.9-1.9,2.5-3.1,4.7-3.1c1,0,2.3,0.5,2.3,1.6c0,0.6-0.5,1.1-1.2,1.1c-1.4,0-1-1.6-2.3-1.6c-1,0-2.1,0.8-2.5,1.6
			c-0.8,1.3-0.8,2.8-0.8,4.2l0,3.1c0,2.3-0.3,3,2.4,3.1l0,0.6c-1.2,0-2.5-0.1-3.7-0.1c-1.3,0-2.5,0.1-3.8,0.1l0-0.6
			c2.4-0.1,2.3-0.9,2.3-3L82.8,13.7z"/>
		<path class="st0" d="M106.6,18.8c-1.5,1.8-3.4,2.6-5.8,2.6c-4,0-7.3-2.7-7.2-6.7c0.1-3.9,3.2-7.4,7.4-7.4c3.2,0,6.2,1.7,6.1,5.1
			c0,0.4-0.5,0.3-0.8,0.3h-9.3l-0.2,1.5c0,2.9,1.5,6.2,5,6.2c1.7,0,3.1-1,4.1-2.3L106.6,18.8z M102.4,11.9c0.5,0,1.6,0.1,1.6-0.6
			c0-1.9-1.1-3.2-3.1-3.2c-2.4,0-3.4,1.8-3.8,3.8H102.4z"/>
		<path class="st0" d="M117.9,12.6c0.3-0.2,0.3-0.6,0.3-0.9c0-2.1-0.2-3.6-2.8-3.6c-1.6,0-2.9,0.1-3.1,1.8c-0.1,0.7-0.5,1.4-1.3,1.4
			c-0.7,0-1.2-0.4-1.2-1.1c0-2.3,4.3-2.7,6-2.7c3.6,0,5.2,0.9,5.2,4.5l-0.1,5.1c0,0.8-0.2,3.1,1.1,3.1c0.6,0,1-0.6,1.3-1l0.6,0.3
			c-0.5,1-1.7,2.1-2.9,2.1c-1.3,0-2.4-1-2.8-2.2c-1.5,1.2-3.4,2.2-5.4,2.2c-1.7,0-3.3-1-3.3-2.7c0-2.6,3.1-3.7,5.2-4.6L117.9,12.6z
			 M118.2,13.4c-1.9,0.9-5.7,2.1-5.7,4.6c0,1.1,0.7,2.2,2,2.2c1.3,0,2.7-0.9,3.6-1.8L118.2,13.4z"/>
		<path class="st0" d="M139.9,17.3c0,2-0.3,3,2.2,3.1l0,0.6c-1.2,0-2.4-0.1-3.5-0.1c-1.3,0-2.5,0.1-3.8,0.1l0-0.6
			c2.4-0.1,2.3-0.9,2.3-3l0.1-4c0-2.1,0.2-5.2-2.9-5.2c-2.5,0-4.2,1.9-4.2,4.2l-0.1,4.8c0,2-0.3,3,2.2,3.1l0,0.6
			c-1.2,0-2.4-0.1-3.5-0.1c-1.3,0-2.5,0.1-3.8,0.1l0-0.6c2.4-0.1,2.3-0.9,2.3-3l0.1-3.8c0-0.9,0-3.1-0.1-3.8c-0.2-1.1-1.1-1-2.2-1
			l0-0.6c1.7-0.2,2.9-0.7,4.5-1l0.4,2.8h0.1c1.2-1.9,2.9-2.8,5.2-2.8c3.1,0,4.8,1.3,4.8,4.3L139.9,17.3z"/>
	</g>
</g>
</svg>
